<svg width="179" height="179" viewBox="0 0 179 179" fill="none" xmlns="http://www.w3.org/2000/svg">
<path fill-rule="evenodd" clip-rule="evenodd" d="M5.73838 31.8444C0 43.6098 0 58.8932 0 89.46C0 120.027 0 135.31 5.73838 147.076C11.2843 158.446 20.4736 167.636 31.8444 173.182C43.6098 178.92 58.8932 178.92 89.46 178.92C120.027 178.92 135.31 178.92 147.076 173.182C158.446 167.636 167.636 158.446 173.182 147.076C178.92 135.31 178.92 120.027 178.92 89.46C178.92 58.8932 178.92 43.6098 173.182 31.8444C167.636 20.4736 158.446 11.2843 147.076 5.73838C135.31 0 120.027 0 89.46 0C58.8932 0 43.6098 0 31.8444 5.73838C20.4736 11.2843 11.2843 20.4736 5.73838 31.8444ZM27.4274 41.976C21.1978 51.6633 21.7248 65.1015 22.7787 91.9781C23.7604 117.01 24.2512 129.526 30.5992 138.415C33.2235 142.09 36.5063 145.247 40.2813 147.725C49.4122 153.72 62.1315 153.72 87.57 153.72C99.6094 153.72 106.142 160.902 111.154 166.412C114.272 169.84 116.8 172.62 119.7 172.62C123.481 172.62 125.528 168.234 127.655 163.679C129.781 159.125 131.986 154.402 136.08 153.72C146.584 151.969 152.773 143.751 153.31 133.115L155.245 94.8021C156.716 65.6653 157.452 51.0969 150.302 40.8414C148.19 37.8123 145.631 35.1207 142.712 32.8586C132.83 25.2 118.243 25.2 89.0692 25.2H86.9894C60.0922 25.2 46.6436 25.2 37.2079 31.8044C33.3178 34.5273 29.9957 37.9822 27.4274 41.976ZM81.9 81.27C81.9 95.5355 74.2844 107.1 64.89 107.1C55.4956 107.1 47.88 95.5355 47.88 81.27C47.88 67.0045 55.4956 55.44 64.89 55.44C74.2844 55.44 81.9 67.0045 81.9 81.27ZM114.03 107.1C123.424 107.1 131.04 95.5355 131.04 81.27C131.04 67.0045 123.424 55.44 114.03 55.44C104.636 55.44 97.02 67.0045 97.02 81.27C97.02 95.5355 104.636 107.1 114.03 107.1Z" fill="#80807E"/>
</svg>
